<svg width="278" height="278" viewBox="0 0 278 278" fill="none" xmlns="http://www.w3.org/2000/svg">
<g filter="url(#filter0_d_97_188)">
<g filter="url(#filter1_d_97_188)">
<path fill-rule="evenodd" clip-rule="evenodd" d="M274 135C274 209.558 213.558 270 139 270C64.4416 270 4 209.558 4 135C4 60.4416 64.4416 0 139 0C213.558 0 274 60.4416 274 135ZM135 21C135 18.7909 136.791 17 139 17C141.209 17 143 18.7909 143 21V37C143 39.2091 141.209 41 139 41C136.791 41 135 39.2091 135 37V21ZM170.075 22.0353C167.942 21.4635 165.748 22.7298 165.176 24.8637L161.035 40.3185C160.464 42.4524 161.73 44.6457 163.864 45.2175C165.998 45.7893 168.191 44.5229 168.763 42.3891L172.904 26.9343C173.476 24.8004 172.209 22.607 170.075 22.0353ZM192.505 33.6982C193.61 31.7851 196.056 31.1296 197.969 32.2341C199.883 33.3387 200.538 35.7851 199.434 37.6982L191.434 51.5546C190.329 53.4678 187.883 54.1233 185.969 53.0187C184.056 51.9142 183.401 49.4678 184.505 47.5546L192.505 33.6982ZM221.95 51.907C220.387 50.3449 217.855 50.3449 216.293 51.907L204.979 63.2207C203.417 64.7828 203.417 67.3155 204.979 68.8776C206.541 70.4397 209.074 70.4397 210.636 68.8776L221.95 57.5639C223.512 56.0018 223.512 53.4691 221.95 51.907ZM235.321 74C237.234 72.8954 239.68 73.5509 240.785 75.4641C241.889 77.3773 241.234 79.8236 239.321 80.9282L225.464 88.9282C223.551 90.0328 221.105 89.3773 220 87.4641C218.895 85.5509 219.551 83.1046 221.464 82L235.321 74ZM253.217 103.864C252.646 101.73 250.452 100.464 248.318 101.035L232.864 105.176C230.73 105.748 229.463 107.941 230.035 110.075C230.607 112.209 232.8 113.476 234.934 112.904L250.389 108.763C252.523 108.191 253.789 105.998 253.217 103.864ZM253 130C255.209 130 257 131.791 257 134C257 136.209 255.209 138 253 138H237C234.791 138 233 136.209 233 134C233 131.791 234.791 130 237 130H253ZM253.217 165.075C253.789 162.942 252.523 160.748 250.389 160.176L234.934 156.035C232.8 155.464 230.607 156.73 230.035 158.864C229.463 160.998 230.73 163.191 232.864 163.763L248.318 167.904C250.452 168.476 252.646 167.209 253.217 165.075ZM239.321 187C241.234 188.105 241.889 190.551 240.785 192.464C239.68 194.377 237.234 195.033 235.321 193.928L221.464 185.928C219.551 184.824 218.895 182.377 220 180.464C221.105 178.551 223.551 177.895 225.464 179L239.321 187ZM221.799 217.799C223.361 216.237 223.361 213.704 221.799 212.142L210.485 200.828C208.923 199.266 206.391 199.266 204.828 200.828C203.266 202.39 203.266 204.923 204.828 206.485L216.142 217.799C217.704 219.361 220.237 219.361 221.799 217.799ZM199.928 230.321C201.033 232.234 200.377 234.68 198.464 235.785C196.551 236.889 194.105 236.234 193 234.321L185 220.464C183.895 218.551 184.551 216.105 186.464 215C188.377 213.895 190.824 214.551 191.928 216.464L199.928 230.321ZM170.075 247.217C172.209 246.646 173.476 244.452 172.904 242.318L168.763 226.864C168.191 224.73 165.998 223.463 163.864 224.035C161.73 224.607 160.464 226.8 161.035 228.934L165.176 244.389C165.748 246.523 167.942 247.789 170.075 247.217ZM143 249C143 251.209 141.209 253 139 253C136.791 253 135 251.209 135 249V233C135 230.791 136.791 229 139 229C141.209 229 143 230.791 143 233V249ZM107.864 247.217C109.998 247.789 112.191 246.523 112.763 244.389L116.904 228.934C117.476 226.8 116.209 224.607 114.075 224.035C111.942 223.463 109.748 224.73 109.176 226.864L105.035 242.318C104.464 244.452 105.73 246.646 107.864 247.217ZM84.9282 234.321C83.8237 236.234 81.3773 236.889 79.4641 235.785C77.5509 234.68 76.8954 232.234 78 230.321L86 216.464C87.1046 214.551 89.5509 213.895 91.4641 215C93.3773 216.105 94.0328 218.551 92.9282 220.464L84.9282 234.321ZM55.8284 217.799C57.3905 219.361 59.9232 219.361 61.4853 217.799L72.799 206.485C74.3611 204.923 74.3611 202.391 72.799 200.828C71.2369 199.266 68.7042 199.266 67.1421 200.828L55.8284 212.142C54.2663 213.704 54.2663 216.237 55.8284 217.799ZM41.4641 193.928C39.5509 195.033 37.1046 194.377 36 192.464C34.8954 190.551 35.5509 188.105 37.4641 187L51.3205 179C53.2337 177.895 55.68 178.551 56.7846 180.464C57.8892 182.377 57.2337 184.824 55.3205 185.928L41.4641 193.928ZM25.0353 165.075C25.607 167.209 27.8004 168.475 29.9343 167.904L45.3891 163.763C47.5229 163.191 48.7893 160.997 48.2175 158.864C47.6457 156.73 45.4524 155.463 43.3185 156.035L27.8637 160.176C25.7298 160.748 24.4635 162.941 25.0353 165.075ZM26 138C23.7909 138 22 136.209 22 134C22 131.791 23.7909 130 26 130H42C44.2091 130 46 131.791 46 134C46 136.209 44.2091 138 42 138H26ZM25.0353 103.864C24.4635 105.997 25.7298 108.191 27.8637 108.763L43.3185 112.904C45.4524 113.475 47.6457 112.209 48.2175 110.075C48.7893 107.941 47.5229 105.748 45.3891 105.176L29.9343 101.035C27.8004 100.463 25.607 101.73 25.0353 103.864ZM37.4641 80.9282C35.5509 79.8237 34.8954 77.3773 36 75.4641C37.1046 73.5509 39.5509 72.8954 41.4641 74L55.3205 82C57.2337 83.1046 57.8892 85.5509 56.7846 87.4641C55.68 89.3773 53.2337 90.0328 51.3205 88.9282L37.4641 80.9282ZM55.8284 51.8283C54.2663 53.3904 54.2663 55.9231 55.8284 57.4852L67.1421 68.7989C68.7042 70.361 71.2369 70.361 72.799 68.7989C74.3611 67.2368 74.3611 64.7041 72.799 63.142L61.4853 51.8283C59.9232 50.2662 57.3905 50.2662 55.8284 51.8283ZM78 37.4641C76.8954 35.5509 77.5509 33.1046 79.4641 32C81.3773 30.8954 83.8236 31.5509 84.9282 33.4641L92.9282 47.3205C94.0328 49.2337 93.3773 51.68 91.4641 52.7846C89.5509 53.8892 87.1046 53.2337 86 51.3205L78 37.4641ZM107.864 22.0353C105.73 22.607 104.464 24.8004 105.035 26.9343L109.176 42.3891C109.748 44.5229 111.941 45.7893 114.075 45.2175C116.209 44.6457 117.476 42.4524 116.904 40.3185L112.763 24.8637C112.191 22.7298 109.998 21.4635 107.864 22.0353Z" fill="#393C47"/>
</g>
</g>
<defs>
<filter id="filter0_d_97_188" x="0" y="0" width="278" height="278" filterUnits="userSpaceOnUse" color-interpolation-filters="sRGB">
<feFlood flood-opacity="0" result="BackgroundImageFix"/>
<feColorMatrix in="SourceAlpha" type="matrix" values="0 0 0 0 0 0 0 0 0 0 0 0 0 0 0 0 0 0 127 0" result="hardAlpha"/>
<feOffset dy="4"/>
<feGaussianBlur stdDeviation="2"/>
<feComposite in2="hardAlpha" operator="out"/>
<feColorMatrix type="matrix" values="0 0 0 0 0 0 0 0 0 0 0 0 0 0 0 0 0 0 0.25 0"/>
<feBlend mode="normal" in2="BackgroundImageFix" result="effect1_dropShadow_97_188"/>
<feBlend mode="normal" in="SourceGraphic" in2="effect1_dropShadow_97_188" result="shape"/>
</filter>
<filter id="filter1_d_97_188" x="0" y="0" width="278" height="278" filterUnits="userSpaceOnUse" color-interpolation-filters="sRGB">
<feFlood flood-opacity="0" result="BackgroundImageFix"/>
<feColorMatrix in="SourceAlpha" type="matrix" values="0 0 0 0 0 0 0 0 0 0 0 0 0 0 0 0 0 0 127 0" result="hardAlpha"/>
<feOffset dy="4"/>
<feGaussianBlur stdDeviation="2"/>
<feComposite in2="hardAlpha" operator="out"/>
<feColorMatrix type="matrix" values="0 0 0 0 0 0 0 0 0 0 0 0 0 0 0 0 0 0 0.25 0"/>
<feBlend mode="normal" in2="BackgroundImageFix" result="effect1_dropShadow_97_188"/>
<feBlend mode="normal" in="SourceGraphic" in2="effect1_dropShadow_97_188" result="shape"/>
</filter>
</defs>
</svg>
